<svg xmlns="http://www.w3.org/2000/svg" version="1.1" xmlns:xlink="http://www.w3.org/1999/xlink" width="1000" height="1000"><style>
    #light-icon {
      display: inline;
    }
    #dark-icon {
      display: none;
    }

    @media (prefers-color-scheme: dark) {
      #light-icon {
        display: none;
      }
      #dark-icon {
        display: inline;
      }
    }
  </style><g id="light-icon"><svg xmlns="http://www.w3.org/2000/svg" version="1.1" xmlns:xlink="http://www.w3.org/1999/xlink" width="1000" height="1000"><g><g transform="matrix(0.3471017007983339,0,0,0.3471017007983339,0,0)"><svg xmlns="http://www.w3.org/2000/svg" version="1.1" xmlns:xlink="http://www.w3.org/1999/xlink" width="2881" height="2881"><svg width="2881" height="2881" viewBox="0 0 2881 2881" fill="none" xmlns="http://www.w3.org/2000/svg">
<g clip-path="url(#clip0_59_5)">
<path d="M301 2881.5C372 2745.5 405.5 2460.5 405.5 2346.5C405.5 2240.38 364.874 1918 390 1761.5C411.023 1630.55 461.091 1509.04 532.696 1401C509.332 1200.36 522.736 1083.23 578 912.5C769.922 869.851 963.319 957.658 1035.25 990.317L1037 991.111C1254.83 899.203 1501.03 871.124 1733.5 929.533C1886.99 794.019 1987.58 749.64 2168 725C2282.27 917.49 2309 1073 2281.54 1293.5C2378.52 1417.6 2460.32 1573.68 2520 1765.5C2598.24 2017 2636.5 2464.5 2410.5 2881.5H301Z" fill="white" style="fill:white;fill-opacity:1;"></path>
<path d="M532.696 1401C509.332 1200.36 522.736 1083.23 578 912.5C771.5 869.5 966.5 959.111 1037 991.111M1733.5 929.533C1886.99 794.019 1987.58 749.64 2168 725C2282.27 917.49 2309 1073 2281.54 1293.5M1110 1401C1134.38 1547.69 1140.62 1629.91 1136 1776.5M1767 1374.5C1792.63 1532.11 1798.13 1617.9 1794.5 1767M301 2881.5C372 2745.5 405.5 2460.5 405.5 2346.5C405.5 2240.38 364.874 1918 390 1761.5C536.5 849 2093.47 394.5 2520 1765.5C2598.24 2017 2636.5 2464.5 2410.5 2881.5H301Z" stroke="white" style="stroke:white;stroke-opacity:1;" stroke-width="128" stroke-linecap="round" stroke-linejoin="round"></path>
<path d="M301 2881.5C372 2745.5 405.5 2460.5 405.5 2346.5C405.5 2240.38 364.874 1918 390 1761.5C536.5 849 2093.47 394.5 2520 1765.5C2598.24 2017 2636.5 2464.5 2410.5 2881.5M532 1402.05C508.636 1201.41 522.736 1083.23 578 912.5C771.5 869.5 960.5 961.662 1031 993.662M1736 930.165C1889.49 794.651 1987.58 749.64 2168 725C2282.27 917.49 2304.62 1064.07 2281.93 1294M1110 1401C1134.38 1547.69 1140.62 1629.91 1136 1776.5M1767 1374.5C1792.63 1532.11 1798.13 1617.9 1794.5 1767" stroke="black" style="stroke:black;stroke-opacity:1;" stroke-width="64" stroke-linecap="round" stroke-linejoin="round"></path>
</g>
<defs>
<clipPath id="clip0_59_5">
<rect width="2881" height="2881" fill="white" style="fill:white;fill-opacity:1;"></rect>
</clipPath>
</defs>
</svg></svg></g></g></svg></g><g id="dark-icon"><svg xmlns="http://www.w3.org/2000/svg" version="1.1" xmlns:xlink="http://www.w3.org/1999/xlink" width="1000" height="1000"><g><g transform="matrix(0.4152823920265781,0,0,0.4152823920265781,0,25.539867109634542)"><svg xmlns="http://www.w3.org/2000/svg" version="1.1" xmlns:xlink="http://www.w3.org/1999/xlink" width="2408" height="2285"><svg width="2408" height="2285" viewBox="0 0 2408 2285" fill="none" xmlns="http://www.w3.org/2000/svg">
<path d="M64 2220.5C135 2084.5 168.5 1799.5 168.5 1685.5C168.5 1579.38 127.874 1257 153 1100.5C174.023 969.555 224.091 848.041 295.696 740C272.332 539.356 285.736 422.235 341 251.5C532.922 208.851 726.319 296.658 798.25 329.317L800 330.111C1017.83 238.203 1264.03 210.124 1496.5 268.533C1649.99 133.019 1750.58 88.6397 1931 64C2045.27 256.49 2072 412 2044.54 632.5C2141.52 756.595 2223.32 912.68 2283 1104.5C2361.24 1356 2399.5 1803.5 2173.5 2220.5H64Z" fill="white" style="fill:white;fill-opacity:1;"></path>
<path d="M295.696 740C272.332 539.356 285.736 422.235 341 251.5C534.5 208.5 729.5 298.111 800 330.111M1496.5 268.533C1649.99 133.019 1750.58 88.6397 1931 64C2045.27 256.49 2072 412 2044.54 632.5M873 740C897.376 886.694 903.623 968.912 899 1115.5M1530 713.5C1555.63 871.109 1561.13 956.896 1557.5 1106M64 2220.5C135 2084.5 168.5 1799.5 168.5 1685.5C168.5 1579.38 127.874 1257 153 1100.5C299.5 188 1856.47 -266.5 2283 1104.5C2361.24 1356 2399.5 1803.5 2173.5 2220.5H64Z" stroke="white" style="stroke:white;stroke-opacity:1;" stroke-width="128" stroke-linecap="round" stroke-linejoin="round"></path>
<path d="M64 2220.5C135 2084.5 168.5 1799.5 168.5 1685.5C168.5 1579.38 127.874 1257 153 1100.5C299.5 188 1856.47 -266.5 2283 1104.5C2361.24 1356 2399.5 1803.5 2173.5 2220.5M295 741.052C271.636 540.408 285.736 422.235 341 251.5C534.5 208.5 723.5 300.662 794 332.662M1499 269.165C1652.49 133.651 1750.58 88.6397 1931 64C2045.27 256.49 2067.62 403.073 2044.93 633M873 740C897.376 886.694 903.623 968.912 899 1115.5M1530 713.5C1555.63 871.109 1561.13 956.896 1557.5 1106" stroke="black" style="stroke:black;stroke-opacity:1;" stroke-width="64" stroke-linecap="round" stroke-linejoin="round"></path>
</svg></svg></g></g></svg></g></svg>